<svg xmlns="http://www.w3.org/2000/svg" viewBox="0 0 2560 1440" width="2560" height="1440">
  <!-- Background: base00 (deep teal-green) -->
  <rect width="2560" height="1440" fill="#2b3a36" />

  <!-- Horizontal Stripe Band (Scaled x2, Centered vertically at Y = 840) -->
  <!-- Stripe 1: base0B (neon turquoise) -->
  <rect x="0" y="792" width="2560" height="32" fill="#00f5d4" />
  <!-- Stripe 2: base08 (soft pink) -->
  <rect x="0" y="824" width="2560" height="32" fill="#ffc2d4" />
  <!-- Stripe 3: base02 (dark prune) -->
  <rect x="0" y="856" width="2560" height="32" fill="#5e3a4d" />

  <!-- Circular cutout for the logo (matching background color, scaled x2) -->
  <circle cx="1280" cy="840" r="140" fill="#2b3a36" />

  <!-- White Monochrome NixOS Logo (Scaled x2, Centered at Y = 840) -->
  <g transform="translate(1146.29, 710.98) scale(0.5)">
    <g transform="translate(-132.5822, 958.04022)">
      <!-- Branch 1 -->
      <path fill="#ffffff" d="m 309.40365,-710.2521 122.19683,211.6751 -56.15706,0.5268 -32.6236,-56.8692 -32.85645,56.5653 -27.90237,-0.011 -14.29086,-24.6896 46.81047,-80.4902 -33.22946,-57.8256 z" />
      <!-- Branch 2 -->
      <path fill="#ffffff" d="m 353.50926,-797.4433 -122.21756,211.6631 -28.53477,-48.37 32.93839,-56.6875 -65.41521,-0.1719 -13.9414,-24.1698 14.23637,-24.721 93.11177,0.2939 33.46371,-57.6903 z" />
      <!-- Branch 3 -->
      <path fill="#ffffff" d="m 362.88537,-628.243 244.41439,0.012 -27.62229,48.8968 -65.56199,-0.1817 32.55876,56.7371 -13.96098,24.1585 -28.52722,0.032 -46.3013,-80.7841 -66.69317,-0.1353 z" />
      <!-- Branch 4 -->
      <path fill="#ffffff" d="m 505.14318,-720.9886 -122.19683,-211.6751 56.15706,-0.5268 32.6236,56.8692 32.85645,-56.5653 27.90237,0.011 14.29086,24.6896 -46.81047,80.4902 33.22946,57.8256 z" />
      <!-- Branch 5 -->
      <path fill="#ffffff" d="m 451.3364,-803.53264 -244.4144,-0.012 27.62229,-48.89685 65.56199,0.18175 -32.55875,-56.73717 13.96097,-24.15851 28.52722,-0.0315 46.3013,80.78414 66.69317,0.13524 z" />
      <!-- Branch 6 -->
      <path fill="#ffffff" d="m 460.87178,-633.8425 122.21757,-211.66304 28.53477,48.37003 -32.93839,56.68751 65.4152,0.1718 13.9414,24.1698 -14.23636,24.7211 -93.11177,-0.294 -33.46371,57.6904 z" />
    </g>
  </g>
</svg>
